<?xml version="1.0" encoding="UTF-8" standalone="no"?><!DOCTYPE svg PUBLIC "-//W3C//DTD SVG 1.1//EN" "http://www.w3.org/Graphics/SVG/1.1/DTD/svg11.dtd"><svg width="100%" height="100%" viewBox="0 0 600 300" version="1.1" xmlns="http://www.w3.org/2000/svg" xmlns:xlink="http://www.w3.org/1999/xlink" xml:space="preserve" style="fill-rule:evenodd;clip-rule:evenodd;stroke-linecap:round;stroke-linejoin:round;stroke-miterlimit:1.41421;"><rect x="-10.196" y="99" width="617" height="101" style="fill:#fff;stroke-width:2px;stroke:#d1d1d1;"/><text x="71.792px" y="63.288px" style="font-family:'Avenir-Black', 'Avenir', sans-serif;font-weight:800;font-size:48px;fill:#b9b9b9;">Disseminated intravascul</text><text x="71.792px" y="267.288px" style="font-family:'Avenir-Black', 'Avenir', sans-serif;font-weight:800;font-size:48px;fill:#b6b6b6;">Hemolysis</text><g><g><g opacity="0.128788"><text x="93px" y="163.247px" style="font-family:'Avenir-Black', 'Avenir', sans-serif;font-weight:800;font-size:48px;fill:url(#_Linear1);">Fe</text></g></g><g><g opacity="0.292357"><text x="110px" y="163.247px" style="font-family:'Avenir-Black', 'Avenir', sans-serif;font-weight:800;font-size:48px;fill:url(#_Linear2);">Fe</text></g></g><text x="130.225px" y="163.247px" style="font-family:'Avenir-Black', 'Avenir', sans-serif;font-weight:800;font-size:48px;fill:#444;">Febrile neutr<tspan x="423.601px 452.881px " y="163.247px 163.247px ">op</tspan>enia</text><text x="54.319px" y="163.908px" style="font-family:'AppleSymbols', 'Apple Symbols';font-size:51.82px;fill:#ff2b00;">⚑</text></g><g><g><clipPath id="_clip3"><polygon points="295.111,87.094 422.023,53.088 530.094,456.415 403.182,490.421 295.111,87.094 "/></clipPath><g clip-path="url(#_clip3)"><g opacity="0.148839"><path d="M328.315,208.913c-6.279,-20.101 -16.021,-66.065 -10.125,-94.637c3.791,-18.368 19.26,-38.527 37.686,-43.464c20.025,-5.366 47.382,5.215 61.347,23.489c16.621,21.75 31.918,60.555 36.81,78.251l75.451,283.269l-126.302,34.6l-74.867,-281.508Z" style="fill:#b0b0b0;"/><path d="M437.9,177.311c-2.662,13.228 -24.573,27.834 -40.598,32.127c-16.024,4.294 -46.673,3.857 -55.55,-6.365c-6.656,-7.664 -9.426,-30.629 -10.754,-40.136c-6.734,-48.182 6.465,-76.448 29.46,-82.61c22.824,-6.115 48.411,12.322 66.687,56.847c3.769,9.183 12.809,29.931 10.755,40.137Z" style="fill:#f4f4f4;"/></g></g></g><g><clipPath id="_clip4"><polygon points="328.864,84.61 455.777,50.604 563.848,453.931 436.936,487.937 328.864,84.61 "/></clipPath><g clip-path="url(#_clip4)"><g opacity="0.278592"><path d="M362.069,206.429c-6.279,-20.101 -16.022,-66.065 -10.125,-94.637c3.791,-18.368 19.26,-38.526 37.686,-43.464c20.025,-5.365 47.381,5.215 61.346,23.489c16.622,21.75 31.919,60.555 36.811,78.251l75.451,283.269l-126.302,34.6l-74.867,-281.508Z" style="fill:#b0b0b0;"/><path d="M471.654,174.827c-2.662,13.228 -24.573,27.834 -40.598,32.128c-16.025,4.293 -46.673,3.856 -55.55,-6.365c-6.656,-7.665 -9.426,-30.63 -10.755,-40.137c-6.733,-48.182 6.466,-76.448 29.461,-82.609c22.823,-6.116 48.411,12.322 66.687,56.846c3.769,9.183 12.808,29.931 10.755,40.137Z" style="fill:#f4f4f4;"/></g></g></g><g><path d="M398.221,206.429c-6.279,-20.101 -15.976,-66.197 -9.473,-94.637c5.095,-22.281 18.608,-38.526 37.034,-43.464c20.025,-5.365 41.032,0.03 60.694,23.489c20.442,24.389 32.571,60.555 37.463,78.251l75.451,283.269l-126.302,34.6l-74.867,-281.508Z" style="fill:#b0b0b0;"/><path d="M502.925,174.827c-2.662,13.228 -19.692,27.834 -35.717,32.128c-16.024,4.293 -42.447,2.236 -51.324,-7.986c-6.655,-7.664 -13.652,-29.009 -14.981,-38.516c-6.733,-48.182 6.466,-76.448 29.461,-82.609c22.824,-6.116 48.411,12.322 66.687,56.846c3.769,9.183 7.927,29.931 5.874,40.137Z" style="fill:#f4f4f4;"/></g></g><defs><linearGradient id="_Linear1" x1="0" y1="0" x2="1" y2="0" gradientUnits="userSpaceOnUse" gradientTransform="matrix(56.016,0,0,53.856,100.839,162.598)"><stop offset="0%" style="stop-color:#7d7d7d;stop-opacity:1"/><stop offset="100%" style="stop-color:#fff;stop-opacity:1"/></linearGradient><linearGradient id="_Linear2" x1="0" y1="0" x2="1" y2="0" gradientUnits="userSpaceOnUse" gradientTransform="matrix(56.016,0,0,53.856,117.839,162.598)"><stop offset="0%" style="stop-color:#7d7d7d;stop-opacity:1"/><stop offset="100%" style="stop-color:#fff;stop-opacity:1"/></linearGradient></defs></svg>